<svg id="illustration" xmlns="http://www.w3.org/2000/svg" viewBox="0 0 400 400"><defs><style>.cls-1,.cls-10,.cls-11,.cls-12,.cls-13,.cls-14,.cls-15,.cls-16,.cls-17,.cls-18,.cls-2,.cls-3,.cls-4,.cls-5,.cls-6,.cls-7,.cls-8,.cls-9{fill-rule:evenodd;}.cls-1{opacity:0.1;}.cls-2{fill:#c3987b;}.cls-3{fill:#27788c;}.cls-4{fill:#8b6651;}.cls-5{fill:#50a9aa;}.cls-6{fill:#72cbcc;}.cls-7{fill:#369496;}.cls-15,.cls-8{fill:#2b2b2b;}.cls-8{opacity:0.2;}.cls-9{fill:#dfbda5;}.cls-10{fill:#fff;}.cls-11{fill:#4f5253;}.cls-12{fill:#8ce0dc;}.cls-13{fill:#318fa6;}.cls-14{fill:#e8cab6;}.cls-16{fill:#6f7173;}.cls-17{fill:#1c7678;}.cls-18{fill:#3aa0ba;}</style></defs><title>Defender (ISFJ) personality</title><polygon class="cls-1" points="110.6 392.44 205.69 377.17 285.24 391.5 212.06 400.11 110.6 392.44"/><polygon class="cls-2" points="205.65 341.36 220.9 366.51 229.25 368.12 233.14 364.44 231.25 344.04 205.65 341.36"/><polygon class="cls-2" points="190.72 339.88 188.08 368.14 177.52 371.63 175.16 366.87 165.69 337.31 190.72 339.88"/><polygon class="cls-3" points="233.14 364.44 244.7 375.11 233.58 387.46 220.05 385.58 220.9 366.51 233.14 364.44"/><polygon class="cls-3" points="188.08 368.14 195.99 389.08 182.08 391.16 168.3 389.08 175.16 366.87 188.08 368.14"/><polygon class="cls-4" points="231.25 344.04 210.59 349.5 205.65 341.36 218.45 340.14 231.25 344.04"/><polygon class="cls-4" points="165.69 337.31 190.04 347.14 190.72 339.88 178.74 337.31 165.69 337.31"/><polygon class="cls-5" points="158.25 174.02 127.92 238.35 153.26 224.13 169.93 215.96 158.25 174.02"/><polygon class="cls-5" points="211.82 165.79 222.07 170.39 256.32 220.95 231.25 209.09 211.82 196.63 211.82 165.79"/><polygon class="cls-6" points="211.82 165.79 200.35 195.08 184.22 201.98 200.7 189.61 179.24 163.38 158.25 174.02 165.37 213.78 156.33 240.85 143.55 268.54 175.69 268.54 211.82 262.08 221.5 248.88 231.25 209.09 211.82 165.79"/><polygon class="cls-7" points="165.37 213.78 156.33 240.85 187.4 240.7 221.22 246.13 230.55 218.75 231.25 209.09 165.37 213.78"/><polygon class="cls-7" points="211.82 262.08 193.12 295.85 161.76 325.29 143.55 268.54 211.82 262.08"/><polygon class="cls-5" points="211.82 262.08 219.9 275.63 228.74 318.5 228.74 340.14 165.69 337.31 161.76 325.29 211.82 262.08"/><polygon class="cls-7" points="165.69 337.31 228.74 318.5 231.25 344.04 165.69 337.31"/><polygon class="cls-8" points="153.37 247.28 156.33 240.85 196.51 240.7 221.5 248.88 211.82 262.08 153.37 247.28"/><polygon class="cls-7" points="211.82 262.08 228.74 318.5 221.5 248.88 211.82 262.08"/><polygon class="cls-9" points="165.37 213.78 194.71 232.17 196.51 237.84 194.71 244.23 127.92 238.35 165.37 213.78"/><polygon class="cls-4" points="229.42 238.35 221.5 248.88 194.71 244.23 216.56 235.59 229.42 238.35"/><polygon class="cls-10" points="211.82 165.79 175.69 164.93 175.69 206.72 200.35 195.08 227.68 201.13 211.82 165.79"/><polygon class="cls-11" points="248.98 58.36 271.05 72.44 253.68 95.96 248.98 77.16 248.98 58.36"/><polygon class="cls-6" points="148.97 58.36 140.25 51.67 129.72 33.07 203.7 0.11 210.17 19.77 211.17 35.06 178.4 52.67 148.97 58.36"/><polygon class="cls-12" points="203.7 0.11 255 21.5 248.98 58.36 227.05 49.09 211.17 35.06 203.7 0.11"/><polygon class="cls-7" points="129.72 33.07 134.23 77.16 144.44 68.39 148.97 58.36 129.72 33.07"/><polygon class="cls-3" points="205.22 7.2 202.26 8.41 203.86 16.87 196.76 19.71 197.83 25.32 205.2 22.53 206.88 30.27 209.92 29.24 210.17 19.77 205.22 7.2"/><polygon class="cls-13" points="205.22 7.2 208.71 8.92 210.39 16.14 217.61 19.6 217.51 24.64 211.6 22 213.24 30.3 209.92 29.24 205.22 7.2"/><polygon class="cls-9" points="248.98 58.36 259.95 146.17 216.56 153.15 200.35 195.08 165.59 146.25 141.24 122.82 157.92 113.64 162.21 118.47 178.16 78.88 192.48 70.27 210.17 62.41 248.98 58.36"/><polygon class="cls-2" points="178.16 78.88 188.91 158.26 216.56 153.15 207.87 161.42 210.17 169.69 200.35 195.08 157.63 142.69 154.55 135.88 150.09 133.44 136.68 117 153.37 102.88 161.04 120.21 166.72 103.88 178.16 78.88"/><polygon class="cls-2" points="241.71 81.29 225.7 103.37 217.97 113.67 194.89 88.82 241.71 81.29"/><polygon class="cls-14" points="213.91 85.69 217.97 113.67 227.05 112.42 222.82 84.23 213.91 85.69"/><polygon class="cls-4" points="227.05 112.42 223.1 118.47 217.97 113.67 227.05 112.42"/><polygon class="cls-4" points="216.56 153.15 210.17 169.69 180.64 158.34 216.56 153.15"/><polygon class="cls-4" points="160.8 126.72 157.63 142.69 150.09 133.45 160.8 126.72"/><polygon class="cls-4" points="157.3 124.03 151.43 113.85 143.55 118.47 157.3 124.03"/><polygon class="cls-11" points="207.87 70.27 213.01 52.67 211.17 35.06 148.97 58.36 119.43 95.76 149.3 88.82 178.16 78.88 191.06 75.14 207.87 70.27"/><polygon class="cls-15" points="178.16 78.88 162.04 122.21 153.37 107.83 136.68 117 119.43 95.76 178.16 78.88"/><polygon class="cls-16" points="211.17 35.06 248.98 58.36 207.87 70.27 211.17 35.06"/><polygon class="cls-11" points="213.91 85.69 212.97 79.5 194.89 88.82 213.91 85.69"/><polygon class="cls-11" points="222.82 84.23 241.71 81.29 222.13 78.25 222.82 84.23"/><polygon class="cls-17" points="214.84 130.25 224.11 124.47 234.25 127.15 225.19 132.56 214.84 130.25"/><polygon class="cls-18" points="187.34 380.99 177.09 380.99 168.3 389.08 168.3 392.38 195.99 392.38 195.99 389.08 187.34 380.99"/><polygon class="cls-9" points="231.25 209.09 226.88 225.22 229.42 238.35 254.76 232.46 256.32 220.95 231.25 209.09"/><polygon class="cls-2" points="229.42 238.35 221.5 248.88 218.45 239.21 229.42 238.35"/><polygon class="cls-2" points="194.71 232.17 213.01 220.95 217.97 227.88 218.45 239.21 194.71 244.23 194.71 232.17"/><polygon class="cls-14" points="213.01 220.95 226.88 225.22 229.42 238.35 218.45 239.21 213.01 220.95"/><polygon class="cls-18" points="244.7 375.11 229.8 385.58 220.05 385.58 220.05 388.76 259.61 388.76 259.61 381.58 244.7 375.11"/><polygon class="cls-5" points="207.04 129.26 226.23 137.41 240.69 124.03 225.19 131.56 207.04 129.26"/><path class="cls-15" d="M210.78,99.6a4.28,4.28,0,1,1-4.28-4.27A4.28,4.28,0,0,1,210.78,99.6Z"/><path class="cls-15" d="M237.42,95.33a4.28,4.28,0,1,1-4.27-4.28A4.27,4.27,0,0,1,237.42,95.33Z"/></svg>



